<svg width="631" height="33" viewBox="0 0 631 33" fill="none" xmlns="http://www.w3.org/2000/svg">
<g clip-path="url(#clip0_54_1194)">
<path d="M554.107 0.475586H0V2.31046H554.107V0.475586Z" fill="#9AC95F"/>
<path d="M554.107 31.3652H0V33.2001H554.107V31.3652Z" fill="#9AC95F"/>
<path d="M20.4004 16.8679C20.6405 16.8679 20.7747 16.8679 20.9089 16.8679C23.3909 16.8679 25.8729 16.8741 28.3547 16.8604C28.6756 16.8586 28.8406 16.9404 28.9871 17.2456C29.4441 18.1975 29.9197 19.1404 30.4063 20.1039C30.7322 20.7492 30.4705 21.5379 29.8234 21.8601C29.0967 22.222 28.3719 22.5829 27.6469 22.9436C26.8495 23.3401 26.8494 23.3397 26.2402 22.7305C24.435 20.9254 22.6295 19.1205 20.8248 17.3148C20.7057 17.1956 20.5924 17.0704 20.4004 16.8679Z" fill="#9AC95F"/>
<path d="M17.5512 18.207C17.5512 20.7544 17.5559 23.1641 17.5397 25.5737C17.5386 25.7367 17.4192 25.9312 17.2743 26.0054C16.0513 26.6322 14.8105 27.2242 13.5863 27.8487C13.2802 28.0048 13.1221 27.9523 12.9735 27.6557C12.4827 26.6759 11.9698 25.7069 11.4856 24.7239C11.4249 24.6006 11.4194 24.3524 11.4993 24.2717C13.4772 22.2713 15.47 20.286 17.5512 18.207Z" fill="#9AC95F"/>
<path d="M13.452 6.01313C13.7702 5.36754 14.5533 5.10156 15.1992 5.41934C15.8913 5.75973 16.5708 6.09635 17.2441 6.44539C17.3873 6.51967 17.5408 6.74278 17.5419 6.89804C17.56 9.43561 17.5547 11.9733 17.5532 14.5109C17.5532 14.5758 17.5356 14.6409 17.5131 14.7978C17.2855 14.6349 17.0882 14.5303 16.9366 14.3796C15.3377 12.7915 13.748 11.1941 12.1504 9.60455C11.9432 9.39833 11.8435 9.2259 12.0017 8.91748C12.4916 7.96082 12.9671 6.99675 13.452 6.01313Z" fill="#9AC95F"/>
<path d="M25.4287 24.5111C25.0422 25.2611 24.6229 26.0748 24.1854 26.9241C23.8552 27.5648 23.0673 27.8166 22.427 27.4854C21.77 27.1456 21.1175 26.8148 20.4419 26.5409C19.65 26.2199 19.4213 25.7656 19.4473 24.9291C19.5141 22.7713 19.4696 20.61 19.4696 18.5508C21.421 20.5027 23.4126 22.4945 25.4287 24.5111Z" fill="#9AC95F"/>
<path d="M29.5801 11.0625C30.2321 11.3795 30.5 12.1679 30.1771 12.817C29.817 13.541 29.4663 14.2418 29.1033 14.936C29.0251 15.0855 28.8055 15.2551 28.65 15.2562C26.0824 15.2761 23.5146 15.2703 20.8672 15.2703C20.9866 15.1225 21.0582 15.0155 21.1473 14.9262C22.8238 13.2457 24.5052 11.57 26.1773 9.88511C26.3844 9.67638 26.5582 9.57655 26.8561 9.72552C27.7579 10.1762 28.6643 10.6174 29.5801 11.0625Z" fill="#9AC95F"/>
<path d="M7.05281 19.2197C7.40423 18.5075 7.75091 17.8087 8.10777 17.115C8.17451 16.9851 8.34889 16.8786 8.49493 16.8777C11.0671 16.8648 13.6393 16.8695 16.2117 16.8726C16.2407 16.8726 16.2699 16.8979 16.2517 16.8893C14.4124 18.7238 12.5617 20.5698 10.6554 22.4712C9.70166 21.9945 8.68845 21.4881 7.63949 20.964C6.99752 20.6434 6.73532 19.8632 7.05281 19.2197Z" fill="#9AC95F"/>
<path d="M19.471 14.2281C19.471 13.2253 19.471 12.2206 19.471 11.2159C19.471 9.79783 19.4608 8.37958 19.484 6.9619C19.4869 6.78542 19.6232 6.52782 19.772 6.4502C20.5858 6.02492 21.4081 5.61583 22.2459 5.20102C22.8887 4.88283 23.669 5.14364 23.9909 5.78463C24.4346 6.66842 24.8742 7.54411 25.3026 8.39732C23.358 10.3416 21.4311 12.2681 19.471 14.2281Z" fill="#9AC95F"/>
<path d="M7.0538 11.2549C7.97026 10.7968 8.86885 10.3492 9.77204 9.91119C9.89351 9.85227 10.0715 9.88187 10.1676 9.97681C11.9141 11.7024 13.6484 13.4403 15.4799 15.2705C15.1827 15.2705 15.0144 15.2705 14.8463 15.2705C12.5784 15.2705 10.3104 15.2591 8.04272 15.2819C7.67999 15.2855 7.52669 15.156 7.38274 14.855C7.08787 14.2384 6.78238 13.627 6.47117 13.0085C6.14712 12.364 6.40849 11.5774 7.0538 11.2549Z" fill="#9AC95F"/>
<path d="M57.3262 16.8679C57.5663 16.8679 57.7005 16.8679 57.8347 16.8679C60.3167 16.8679 62.7987 16.8741 65.2805 16.8604C65.6014 16.8586 65.7664 16.9404 65.9129 17.2456C66.3698 18.1975 66.8455 19.1404 67.3321 20.1039C67.658 20.7492 67.3963 21.5379 66.7492 21.8601C66.0225 22.222 65.2977 22.5829 64.5727 22.9436C63.7753 23.3401 63.7752 23.3397 63.166 22.7305C61.3607 20.9254 59.5553 19.1205 57.7508 17.3148C57.6315 17.1956 57.5181 17.0704 57.3262 16.8679Z" fill="#9AC95F"/>
<path d="M54.4865 18.207C54.4865 20.7544 54.4911 23.1641 54.475 25.5737C54.4739 25.7367 54.3547 25.9312 54.2096 26.0054C52.9865 26.6322 51.7458 27.2242 50.5216 27.8487C50.2155 28.0048 50.0573 27.9523 49.9088 27.6557C49.418 26.6759 48.9051 25.7069 48.4209 24.7239C48.3601 24.6006 48.3548 24.3524 48.4346 24.2717C50.4125 22.2713 52.4053 20.286 54.4865 18.207Z" fill="#9AC95F"/>
<path d="M50.38 6.01313C50.6982 5.36754 51.4813 5.10156 52.1272 5.41934C52.8193 5.75973 53.4988 6.09635 54.1719 6.44539C54.3152 6.51967 54.4686 6.74278 54.4697 6.89804C54.488 9.43561 54.4826 11.9733 54.4811 14.5109C54.4811 14.5758 54.4635 14.6409 54.4408 14.7978C54.2133 14.6349 54.016 14.5303 53.8644 14.3796C52.2654 12.7915 50.6756 11.1941 49.0781 9.60455C48.8709 9.39833 48.7712 9.2259 48.9294 8.91748C49.4197 7.96082 49.8953 6.99675 50.38 6.01313Z" fill="#9AC95F"/>
<path d="M62.3584 24.5111C61.9719 25.2611 61.5526 26.0748 61.115 26.9241C60.7849 27.5648 59.997 27.8166 59.3567 27.4854C58.6996 27.1456 58.0472 26.8148 57.3716 26.5409C56.5797 26.2199 56.351 25.7656 56.3769 24.9291C56.4438 22.7713 56.3993 20.61 56.3993 18.5508C58.3507 20.5027 60.3423 22.4945 62.3584 24.5111Z" fill="#9AC95F"/>
<path d="M66.5098 11.0625C67.1618 11.3795 67.4297 12.1679 67.1068 12.817C66.7467 13.541 66.396 14.2418 66.033 14.936C65.9548 15.0855 65.7352 15.2551 65.5796 15.2562C63.0121 15.2761 60.4443 15.2703 57.7969 15.2703C57.9162 15.1225 57.9879 15.0155 58.077 14.9262C59.7535 13.2457 61.4349 11.57 63.107 9.88511C63.3141 9.67638 63.4879 9.57655 63.7858 9.72552C64.6876 10.1762 65.594 10.6174 66.5098 11.0625Z" fill="#9AC95F"/>
<path d="M43.9884 19.2197C44.3398 18.5075 44.6865 17.8087 45.0433 17.115C45.1101 16.9851 45.2844 16.8786 45.4305 16.8777C48.0027 16.8648 50.5749 16.8695 53.1472 16.8726C53.1762 16.8726 53.2054 16.8979 53.1873 16.8893C51.3479 18.7238 49.4973 20.5698 47.5909 22.4712C46.6372 21.9945 45.624 21.4881 44.575 20.964C43.9331 20.6434 43.6709 19.8632 43.9884 19.2197Z" fill="#9AC95F"/>
<path d="M56.4026 14.2281C56.4026 13.2253 56.4026 12.2206 56.4026 11.2159C56.4026 9.79783 56.3924 8.37958 56.4156 6.9619C56.4185 6.78542 56.5548 6.52782 56.7036 6.4502C57.5175 6.02492 58.3397 5.61583 59.1775 5.20102C59.8203 4.88283 60.6007 5.14364 60.9225 5.78463C61.3662 6.66842 61.8059 7.54411 62.2342 8.39732C60.2896 10.3416 58.3627 12.2681 56.4026 14.2281Z" fill="#9AC95F"/>
<path d="M43.9874 11.2549C44.9038 10.7968 45.8024 10.3492 46.7056 9.91119C46.8271 9.85227 47.0051 9.88187 47.1011 9.97681C48.8476 11.7024 50.582 13.4403 52.4135 15.2705C52.1163 15.2705 51.948 15.2705 51.7799 15.2705C49.5119 15.2705 47.244 15.2591 44.9763 15.2819C44.6136 15.2855 44.4603 15.156 44.3163 14.855C44.0214 14.2384 43.716 13.627 43.4047 13.0085C43.0807 12.364 43.3422 11.5774 43.9874 11.2549Z" fill="#9AC95F"/>
<path d="M37.0727 19.2616C38.4407 19.2616 39.5497 18.1526 39.5497 16.7846C39.5497 15.4166 38.4407 14.3076 37.0727 14.3076C35.7047 14.3076 34.5957 15.4166 34.5957 16.7846C34.5957 18.1526 35.7047 19.2616 37.0727 19.2616Z" fill="#9AC95F"/>
<path d="M31.375 3.71582L37.0738 9.41464L42.7726 3.71582H31.375Z" fill="#FF0080"/>
<path d="M42.7726 29.8541L37.0738 24.1553L31.375 29.8541H42.7726Z" fill="#FF0080"/>
<path d="M94.2635 16.8679C94.5037 16.8679 94.6379 16.8679 94.772 16.8679C97.254 16.8679 99.736 16.8741 102.218 16.8604C102.539 16.8586 102.704 16.9404 102.85 17.2456C103.307 18.1975 103.783 19.1404 104.269 20.1039C104.595 20.7492 104.334 21.5379 103.687 21.8601C102.96 22.222 102.235 22.5829 101.51 22.9436C100.713 23.3401 100.713 23.3397 100.103 22.7305C98.2981 20.9254 96.4927 19.1205 94.6881 17.3148C94.5689 17.1956 94.4555 17.0704 94.2635 16.8679Z" fill="#9AC95F"/>
<path d="M91.4161 18.207C91.4161 20.7544 91.4208 23.1641 91.4046 25.5737C91.4035 25.7367 91.2843 25.9312 91.1392 26.0054C89.9162 26.6322 88.6754 27.2242 87.4512 27.8487C87.1451 28.0048 86.9869 27.9523 86.8384 27.6557C86.3476 26.6759 85.8347 25.7069 85.3505 24.7239C85.2897 24.6006 85.2843 24.3524 85.3642 24.2717C87.3421 22.2713 89.3349 20.286 91.4161 18.207Z" fill="#9AC95F"/>
<path d="M87.3139 6.01313C87.6321 5.36754 88.4152 5.10156 89.0611 5.41934C89.7532 5.75973 90.4327 6.09635 91.1058 6.44539C91.249 6.51967 91.4025 6.74278 91.4036 6.89804C91.4218 9.43561 91.4164 11.9733 91.4149 14.5109C91.4149 14.5758 91.3973 14.6409 91.3747 14.7978C91.1471 14.6349 90.9498 14.5303 90.7982 14.3796C89.1993 12.7915 87.6095 11.1941 86.0119 9.60455C85.8048 9.39833 85.7051 9.2259 85.8631 8.91748C86.3536 7.96082 86.8291 6.99675 87.3139 6.01313Z" fill="#9AC95F"/>
<path d="M99.2939 24.5111C98.9074 25.2611 98.4882 26.0748 98.0506 26.9241C97.7204 27.5648 96.9325 27.8166 96.2922 27.4854C95.6352 27.1456 94.9828 26.8148 94.3071 26.5409C93.5152 26.2199 93.2865 25.7656 93.3125 24.9291C93.3794 22.7713 93.3348 20.61 93.3348 18.5508C95.2864 20.5027 97.2778 22.4945 99.2939 24.5111Z" fill="#9AC95F"/>
<path d="M103.445 11.0625C104.097 11.3795 104.365 12.1679 104.042 12.817C103.682 13.541 103.332 14.2418 102.969 14.936C102.89 15.0855 102.671 15.2551 102.515 15.2562C99.9476 15.2761 97.3799 15.2703 94.7324 15.2703C94.8518 15.1225 94.9234 15.0155 95.0125 14.9262C96.689 13.2457 98.3705 11.57 100.043 9.88511C100.25 9.67638 100.423 9.57655 100.721 9.72552C101.623 10.1762 102.53 10.6174 103.445 11.0625Z" fill="#9AC95F"/>
<path d="M80.918 19.2197C81.2695 18.5075 81.6161 17.8087 81.973 17.115C82.0397 16.9851 82.2141 16.8786 82.3602 16.8777C84.9324 16.8648 87.5046 16.8695 90.0769 16.8726C90.1059 16.8726 90.1351 16.8979 90.117 16.8893C88.2776 18.7238 86.427 20.5698 84.5206 22.4712C83.5669 21.9945 82.5537 21.4881 81.5047 20.964C80.8628 20.6434 80.6006 19.8632 80.918 19.2197Z" fill="#9AC95F"/>
<path d="M93.3343 14.2281C93.3343 13.2253 93.3343 12.2206 93.3343 11.2159C93.3343 9.79783 93.3241 8.37958 93.3472 6.9619C93.3502 6.78542 93.4864 6.52782 93.6353 6.4502C94.4491 6.02492 95.2713 5.61583 96.1092 5.20102C96.752 4.88283 97.5323 5.14364 97.8541 5.78463C98.2978 6.66842 98.7375 7.54411 99.1658 8.39732C97.2212 10.3416 95.2944 12.2681 93.3343 14.2281Z" fill="#9AC95F"/>
<path d="M80.919 11.2549C81.8355 10.7968 82.7341 10.3492 83.6372 9.91119C83.7587 9.85227 83.9369 9.88187 84.0328 9.97681C85.7793 11.7024 87.5136 13.4403 89.3451 15.2705C89.0479 15.2705 88.8796 15.2705 88.7115 15.2705C86.4436 15.2705 84.1756 15.2591 81.9079 15.2819C81.5452 15.2855 81.3919 15.156 81.248 14.855C80.9531 14.2384 80.6476 13.627 80.3364 13.0085C80.0123 12.364 80.2738 11.5774 80.919 11.2549Z" fill="#9AC95F"/>
<path d="M74.0043 19.2616C75.3723 19.2616 76.4813 18.1526 76.4813 16.7846C76.4813 15.4166 75.3723 14.3076 74.0043 14.3076C72.6363 14.3076 71.5273 15.4166 71.5273 16.7846C71.5273 18.1526 72.6363 19.2616 74.0043 19.2616Z" fill="#9AC95F"/>
<path d="M68.3066 3.71582L74.0055 9.41464L79.7043 3.71582H68.3066Z" fill="#FF0080"/>
<path d="M79.7043 29.8541L74.0055 24.1553L68.3066 29.8541H79.7043Z" fill="#FF0080"/>
<path d="M131.193 16.8679C131.434 16.8679 131.568 16.8679 131.702 16.8679C134.184 16.8679 136.666 16.8741 139.148 16.8604C139.469 16.8586 139.634 16.9404 139.78 17.2456C140.237 18.1975 140.713 19.1404 141.199 20.1039C141.525 20.7492 141.263 21.5379 140.616 21.8601C139.89 22.222 139.165 22.5829 138.44 22.9436C137.642 23.3401 137.642 23.3397 137.033 22.7305C135.228 20.9254 133.423 19.1205 131.618 17.3148C131.499 17.1956 131.385 17.0704 131.193 16.8679Z" fill="#9AC95F"/>
<path d="M128.35 18.207C128.35 20.7544 128.354 23.1641 128.338 25.5737C128.337 25.7367 128.218 25.9312 128.073 26.0054C126.85 26.6322 125.609 27.2242 124.385 27.8487C124.079 28.0048 123.921 27.9523 123.772 27.6557C123.281 26.6759 122.768 25.7069 122.284 24.7239C122.223 24.6006 122.218 24.3524 122.298 24.2717C124.276 22.2713 126.269 20.286 128.35 18.207Z" fill="#9AC95F"/>
<path d="M124.247 6.01313C124.565 5.36754 125.348 5.10156 125.994 5.41934C126.686 5.75973 127.366 6.09635 128.039 6.44539C128.182 6.51967 128.336 6.74278 128.337 6.89804C128.355 9.43561 128.35 11.9733 128.348 14.5109C128.348 14.5758 128.331 14.6409 128.308 14.7978C128.08 14.6349 127.883 14.5303 127.732 14.3796C126.133 12.7915 124.543 11.1941 122.945 9.60455C122.738 9.39833 122.638 9.2259 122.796 8.91748C123.287 7.96082 123.762 6.99675 124.247 6.01313Z" fill="#9AC95F"/>
<path d="M136.224 24.5111C135.837 25.2611 135.418 26.0748 134.98 26.9241C134.65 27.5648 133.862 27.8166 133.222 27.4854C132.565 27.1456 131.913 26.8148 131.237 26.5409C130.445 26.2199 130.216 25.7656 130.242 24.9291C130.309 22.7713 130.265 20.61 130.265 18.5508C132.216 20.5027 134.208 22.4945 136.224 24.5111Z" fill="#9AC95F"/>
<path d="M140.375 11.0625C141.027 11.3795 141.295 12.1679 140.972 12.817C140.612 13.541 140.261 14.2418 139.898 14.936C139.82 15.0855 139.6 15.2551 139.445 15.2562C136.877 15.2761 134.31 15.2703 131.662 15.2703C131.781 15.1225 131.853 15.0155 131.942 14.9262C133.619 13.2457 135.3 11.57 136.972 9.88511C137.179 9.67638 137.353 9.57655 137.651 9.72552C138.553 10.1762 139.459 10.6174 140.375 11.0625Z" fill="#9AC95F"/>
<path d="M117.854 19.2197C118.205 18.5075 118.552 17.8087 118.909 17.115C118.975 16.9851 119.15 16.8786 119.296 16.8777C121.868 16.8648 124.44 16.8695 127.012 16.8726C127.041 16.8726 127.071 16.8979 127.053 16.8893C125.213 18.7238 123.363 20.5698 121.456 22.4712C120.502 21.9945 119.489 21.4881 118.44 20.964C117.798 20.6434 117.536 19.8632 117.854 19.2197Z" fill="#9AC95F"/>
<path d="M130.264 14.2281C130.264 13.2253 130.264 12.2206 130.264 11.2159C130.264 9.79783 130.254 8.37958 130.277 6.9619C130.28 6.78542 130.416 6.52782 130.565 6.4502C131.379 6.02492 132.201 5.61583 133.039 5.20102C133.682 4.88283 134.462 5.14364 134.784 5.78463C135.228 6.66842 135.667 7.54411 136.096 8.39732C134.151 10.3416 132.224 12.2681 130.264 14.2281Z" fill="#9AC95F"/>
<path d="M117.853 11.2549C118.769 10.7968 119.668 10.3492 120.571 9.91119C120.692 9.85227 120.87 9.88187 120.966 9.97681C122.713 11.7024 124.447 13.4403 126.279 15.2705C125.982 15.2705 125.813 15.2705 125.645 15.2705C123.377 15.2705 121.109 15.2591 118.841 15.2819C118.479 15.2855 118.325 15.156 118.181 14.855C117.887 14.2384 117.581 13.627 117.27 13.0085C116.946 12.364 117.207 11.5774 117.853 11.2549Z" fill="#9AC95F"/>
<path d="M110.938 19.2616C112.306 19.2616 113.415 18.1526 113.415 16.7846C113.415 15.4166 112.306 14.3076 110.938 14.3076C109.57 14.3076 108.461 15.4166 108.461 16.7846C108.461 18.1526 109.57 19.2616 110.938 19.2616Z" fill="#9AC95F"/>
<path d="M105.24 3.71582L110.939 9.41464L116.638 3.71582H105.24Z" fill="#FF0080"/>
<path d="M116.638 29.8541L110.939 24.1553L105.24 29.8541H116.638Z" fill="#FF0080"/>
<path d="M168.129 16.8679C168.369 16.8679 168.503 16.8679 168.637 16.8679C171.119 16.8679 173.601 16.8741 176.083 16.8604C176.404 16.8586 176.569 16.9404 176.716 17.2456C177.173 18.1975 177.648 19.1404 178.135 20.1039C178.461 20.7492 178.199 21.5379 177.552 21.8601C176.825 22.222 176.1 22.5829 175.375 22.9436C174.578 23.3401 174.578 23.3397 173.969 22.7305C172.163 20.9254 170.358 19.1205 168.553 17.3148C168.434 17.1956 168.321 17.0704 168.129 16.8679Z" fill="#9AC95F"/>
<path d="M165.281 18.207C165.281 20.7544 165.286 23.1641 165.27 25.5737C165.269 25.7367 165.149 25.9312 165.004 26.0054C163.781 26.6322 162.541 27.2242 161.316 27.8487C161.01 28.0048 160.852 27.9523 160.704 27.6557C160.213 26.6759 159.7 25.7069 159.216 24.7239C159.155 24.6006 159.15 24.3524 159.23 24.2717C161.207 22.2713 163.2 20.286 165.281 18.207Z" fill="#9AC95F"/>
<path d="M161.18 6.01313C161.499 5.36754 162.282 5.10156 162.928 5.41934C163.62 5.75973 164.299 6.09635 164.973 6.44539C165.116 6.51967 165.269 6.74278 165.27 6.89804C165.288 9.43561 165.283 11.9733 165.282 14.5109C165.282 14.5758 165.264 14.6409 165.242 14.7978C165.014 14.6349 164.817 14.5303 164.665 14.3796C163.066 12.7915 161.476 11.1941 159.879 9.60455C159.672 9.39833 159.572 9.2259 159.73 8.91748C160.22 7.96082 160.696 6.99675 161.18 6.01313Z" fill="#9AC95F"/>
<path d="M173.157 24.5111C172.771 25.2611 172.351 26.0748 171.914 26.9241C171.584 27.5648 170.796 27.8166 170.156 27.4854C169.498 27.1456 168.846 26.8148 168.17 26.5409C167.379 26.2199 167.15 25.7656 167.176 24.9291C167.243 22.7713 167.198 20.61 167.198 18.5508C169.15 20.5027 171.141 22.4945 173.157 24.5111Z" fill="#9AC95F"/>
<path d="M177.311 11.0625C177.963 11.3795 178.231 12.1679 177.908 12.817C177.547 13.541 177.197 14.2418 176.834 14.936C176.756 15.0855 176.536 15.2551 176.38 15.2562C173.813 15.2761 171.245 15.2703 168.598 15.2703C168.717 15.1225 168.789 15.0155 168.878 14.9262C170.554 13.2457 172.236 11.57 173.908 9.88511C174.115 9.67638 174.289 9.57655 174.587 9.72552C175.488 10.1762 176.395 10.6174 177.311 11.0625Z" fill="#9AC95F"/>
<path d="M154.785 19.2197C155.137 18.5075 155.483 17.8087 155.84 17.115C155.907 16.9851 156.081 16.8786 156.227 16.8777C158.8 16.8648 161.372 16.8695 163.944 16.8726C163.973 16.8726 164.002 16.8979 163.984 16.8893C162.145 18.7238 160.294 20.5698 158.388 22.4712C157.434 21.9945 156.421 21.4881 155.372 20.964C154.73 20.6434 154.468 19.8632 154.785 19.2197Z" fill="#9AC95F"/>
<path d="M167.199 14.2281C167.199 13.2253 167.199 12.2206 167.199 11.2159C167.199 9.79783 167.189 8.37958 167.212 6.9619C167.215 6.78542 167.352 6.52782 167.501 6.4502C168.314 6.02492 169.137 5.61583 169.974 5.20102C170.617 4.88283 171.398 5.14364 171.719 5.78463C172.163 6.66842 172.603 7.54411 173.031 8.39732C171.086 10.3416 169.16 12.2681 167.199 14.2281Z" fill="#9AC95F"/>
<path d="M154.782 11.2549C155.699 10.7968 156.597 10.3492 157.501 9.91119C157.622 9.85227 157.8 9.88187 157.896 9.97681C159.643 11.7024 161.377 13.4403 163.208 15.2705C162.911 15.2705 162.743 15.2705 162.575 15.2705C160.307 15.2705 158.039 15.2591 155.771 15.2819C155.408 15.2855 155.255 15.156 155.111 14.855C154.816 14.2384 154.511 13.627 154.2 13.0085C153.876 12.364 154.137 11.5774 154.782 11.2549Z" fill="#9AC95F"/>
<path d="M147.872 19.2616C149.239 19.2616 150.348 18.1526 150.348 16.7846C150.348 15.4166 149.239 14.3076 147.872 14.3076C146.504 14.3076 145.395 15.4166 145.395 16.7846C145.395 18.1526 146.504 19.2616 147.872 19.2616Z" fill="#9AC95F"/>
<path d="M142.17 3.71582L147.869 9.41464L153.568 3.71582H142.17Z" fill="#FF0080"/>
<path d="M153.568 29.8541L147.869 24.1553L142.17 29.8541H153.568Z" fill="#FF0080"/>
<path d="M205.059 16.8679C205.299 16.8679 205.433 16.8679 205.567 16.8679C208.049 16.8679 210.531 16.8741 213.013 16.8604C213.334 16.8586 213.499 16.9404 213.645 17.2456C214.102 18.1975 214.578 19.1404 215.065 20.1039C215.39 20.7492 215.129 21.5379 214.482 21.8601C213.755 22.222 213.03 22.5829 212.305 22.9436C211.508 23.3401 211.508 23.3397 210.898 22.7305C209.093 20.9254 207.288 19.1205 205.483 17.3148C205.364 17.1956 205.251 17.0704 205.059 16.8679Z" fill="#9AC95F"/>
<path d="M202.215 18.207C202.215 20.7544 202.22 23.1641 202.203 25.5737C202.202 25.7367 202.083 25.9312 201.938 26.0054C200.715 26.6322 199.474 27.2242 198.25 27.8487C197.944 28.0048 197.786 27.9523 197.637 27.6557C197.146 26.6759 196.633 25.7069 196.149 24.7239C196.089 24.6006 196.083 24.3524 196.163 24.2717C198.141 22.2713 200.134 20.286 202.215 18.207Z" fill="#9AC95F"/>
<path d="M198.11 6.01313C198.429 5.36754 199.212 5.10156 199.858 5.41934C200.55 5.75973 201.229 6.09635 201.902 6.44539C202.046 6.51967 202.199 6.74278 202.2 6.89804C202.218 9.43561 202.213 11.9733 202.212 14.5109C202.212 14.5758 202.194 14.6409 202.171 14.7978C201.944 14.6349 201.746 14.5303 201.595 14.3796C199.996 12.7915 198.406 11.1941 196.809 9.60455C196.601 9.39833 196.502 9.2259 196.66 8.91748C197.15 7.96082 197.625 6.99675 198.11 6.01313Z" fill="#9AC95F"/>
<path d="M210.089 24.5111C209.702 25.2611 209.283 26.0748 208.846 26.9241C208.515 27.5648 207.727 27.8166 207.087 27.4854C206.43 27.1456 205.778 26.8148 205.102 26.5409C204.31 26.2199 204.081 25.7656 204.107 24.9291C204.174 22.7713 204.13 20.61 204.13 18.5508C206.081 20.5027 208.073 22.4945 210.089 24.5111Z" fill="#9AC95F"/>
<path d="M214.244 11.0625C214.896 11.3795 215.164 12.1679 214.841 12.817C214.481 13.541 214.13 14.2418 213.767 14.936C213.689 15.0855 213.469 15.2551 213.314 15.2562C210.746 15.2761 208.179 15.2703 205.531 15.2703C205.651 15.1225 205.722 15.0155 205.811 14.9262C207.488 13.2457 209.169 11.57 210.841 9.88511C211.048 9.67638 211.222 9.57655 211.52 9.72552C212.422 10.1762 213.329 10.6174 214.244 11.0625Z" fill="#9AC95F"/>
<path d="M191.717 19.2197C192.068 18.5075 192.415 17.8087 192.772 17.115C192.839 16.9851 193.013 16.8786 193.159 16.8777C195.731 16.8648 198.303 16.8695 200.876 16.8726C200.905 16.8726 200.934 16.8979 200.916 16.8893C199.076 18.7238 197.226 20.5698 195.319 22.4712C194.366 21.9945 193.353 21.4881 192.304 20.964C191.662 20.6434 191.399 19.8632 191.717 19.2197Z" fill="#9AC95F"/>
<path d="M204.133 14.2281C204.133 13.2253 204.133 12.2206 204.133 11.2159C204.133 9.79783 204.123 8.37958 204.146 6.9619C204.149 6.78542 204.285 6.52782 204.434 6.4502C205.248 6.02492 206.07 5.61583 206.908 5.20102C207.551 4.88283 208.331 5.14364 208.653 5.78463C209.097 6.66842 209.536 7.54411 209.965 8.39732C208.02 10.3416 206.093 12.2681 204.133 14.2281Z" fill="#9AC95F"/>
<path d="M191.716 11.2549C192.632 10.7968 193.531 10.3492 194.434 9.91119C194.556 9.85227 194.734 9.88187 194.83 9.97681C196.576 11.7024 198.311 13.4403 200.142 15.2705C199.845 15.2705 199.677 15.2705 199.508 15.2705C197.24 15.2705 194.972 15.2591 192.705 15.2819C192.342 15.2855 192.189 15.156 192.045 14.855C191.75 14.2384 191.444 13.627 191.133 13.0085C190.809 12.364 191.071 11.5774 191.716 11.2549Z" fill="#9AC95F"/>
<path d="M184.801 19.2616C186.169 19.2616 187.278 18.1526 187.278 16.7846C187.278 15.4166 186.169 14.3076 184.801 14.3076C183.433 14.3076 182.324 15.4166 182.324 16.7846C182.324 18.1526 183.433 19.2616 184.801 19.2616Z" fill="#9AC95F"/>
<path d="M179.105 3.71582L184.804 9.41464L190.503 3.71582H179.105Z" fill="#FF0080"/>
<path d="M190.503 29.8541L184.804 24.1553L179.105 29.8541H190.503Z" fill="#FF0080"/>
<path d="M241.99 16.8679C242.23 16.8679 242.365 16.8679 242.499 16.8679C244.981 16.8679 247.463 16.8741 249.945 16.8604C250.265 16.8586 250.43 16.9404 250.577 17.2456C251.034 18.1975 251.51 19.1404 251.996 20.1039C252.322 20.7492 252.06 21.5379 251.413 21.8601C250.687 22.222 249.962 22.5829 249.237 22.9436C248.439 23.3401 248.439 23.3397 247.83 22.7305C246.025 20.9254 244.219 19.1205 242.415 17.3148C242.295 17.1956 242.182 17.0704 241.99 16.8679Z" fill="#9AC95F"/>
<path d="M239.147 18.207C239.147 20.7544 239.151 23.1641 239.135 25.5737C239.134 25.7367 239.015 25.9312 238.87 26.0054C237.647 26.6322 236.406 27.2242 235.182 27.8487C234.876 28.0048 234.717 27.9523 234.569 27.6557C234.078 26.6759 233.565 25.7069 233.081 24.7239C233.02 24.6006 233.015 24.3524 233.095 24.2717C235.073 22.2713 237.065 20.286 239.147 18.207Z" fill="#9AC95F"/>
<path d="M235.046 6.01313C235.364 5.36754 236.147 5.10156 236.793 5.41934C237.485 5.75973 238.165 6.09635 238.838 6.44539C238.981 6.51967 239.135 6.74278 239.136 6.89804C239.154 9.43561 239.149 11.9733 239.147 14.5109C239.147 14.5758 239.13 14.6409 239.107 14.7978C238.879 14.6349 238.682 14.5303 238.53 14.3796C236.932 12.7915 235.342 11.1941 233.744 9.60455C233.537 9.39833 233.437 9.2259 233.595 8.91748C234.086 7.96082 234.561 6.99675 235.046 6.01313Z" fill="#9AC95F"/>
<path d="M247.022 24.5111C246.636 25.2611 246.217 26.0748 245.779 26.9241C245.449 27.5648 244.661 27.8166 244.021 27.4854C243.364 27.1456 242.711 26.8148 242.036 26.5409C241.244 26.2199 241.015 25.7656 241.041 24.9291C241.108 22.7713 241.063 20.61 241.063 18.5508C243.015 20.5027 245.006 22.4945 247.022 24.5111Z" fill="#9AC95F"/>
<path d="M251.176 11.0625C251.828 11.3795 252.096 12.1679 251.773 12.817C251.413 13.541 251.062 14.2418 250.699 14.936C250.621 15.0855 250.401 15.2551 250.246 15.2562C247.678 15.2761 245.11 15.2703 242.463 15.2703C242.582 15.1225 242.654 15.0155 242.743 14.9262C244.42 13.2457 246.101 11.57 247.773 9.88511C247.98 9.67638 248.154 9.57655 248.452 9.72552C249.354 10.1762 250.26 10.6174 251.176 11.0625Z" fill="#9AC95F"/>
<path d="M228.65 19.2197C229.002 18.5075 229.349 17.8087 229.705 17.115C229.772 16.9851 229.947 16.8786 230.093 16.8777C232.665 16.8648 235.237 16.8695 237.809 16.8726C237.838 16.8726 237.868 16.8979 237.849 16.8893C236.01 18.7238 234.159 20.5698 232.253 22.4712C231.299 21.9945 230.286 21.4881 229.237 20.964C228.595 20.6434 228.333 19.8632 228.65 19.2197Z" fill="#9AC95F"/>
<path d="M241.065 14.2281C241.065 13.2253 241.065 12.2206 241.065 11.2159C241.065 9.79783 241.055 8.37958 241.078 6.9619C241.081 6.78542 241.217 6.52782 241.366 6.4502C242.18 6.02492 243.002 5.61583 243.84 5.20102C244.482 4.88283 245.263 5.14364 245.585 5.78463C246.028 6.66842 246.468 7.54411 246.896 8.39732C244.952 10.3416 243.025 12.2681 241.065 14.2281Z" fill="#9AC95F"/>
<path d="M228.646 11.2549C229.562 10.7968 230.461 10.3492 231.364 9.91119C231.485 9.85227 231.663 9.88187 231.759 9.97681C233.506 11.7024 235.24 13.4403 237.072 15.2705C236.774 15.2705 236.606 15.2705 236.438 15.2705C234.17 15.2705 231.902 15.2591 229.634 15.2819C229.272 15.2855 229.118 15.156 228.975 14.855C228.68 14.2384 228.374 13.627 228.063 13.0085C227.739 12.364 228 11.5774 228.646 11.2549Z" fill="#9AC95F"/>
<path d="M221.731 19.2616C223.099 19.2616 224.208 18.1526 224.208 16.7846C224.208 15.4166 223.099 14.3076 221.731 14.3076C220.363 14.3076 219.254 15.4166 219.254 16.7846C219.254 18.1526 220.363 19.2616 221.731 19.2616Z" fill="#9AC95F"/>
<path d="M216.039 3.71582L221.738 9.41464L227.437 3.71582H216.039Z" fill="#FF0080"/>
<path d="M227.437 29.8541L221.738 24.1553L216.039 29.8541H227.437Z" fill="#FF0080"/>
<path d="M278.924 16.8679C279.164 16.8679 279.298 16.8679 279.432 16.8679C281.914 16.8679 284.396 16.8741 286.878 16.8604C287.199 16.8586 287.364 16.9404 287.51 17.2456C287.967 18.1975 288.443 19.1404 288.93 20.1039C289.256 20.7492 288.994 21.5379 288.347 21.8601C287.62 22.222 286.895 22.5829 286.17 22.9436C285.373 23.3401 285.373 23.3397 284.764 22.7305C282.958 20.9254 281.153 19.1205 279.348 17.3148C279.229 17.1956 279.116 17.0704 278.924 16.8679Z" fill="#9AC95F"/>
<path d="M276.08 18.207C276.08 20.7544 276.085 23.1641 276.069 25.5737C276.068 25.7367 275.948 25.9312 275.803 26.0054C274.58 26.6322 273.339 27.2242 272.115 27.8487C271.809 28.0048 271.651 27.9523 271.502 27.6557C271.012 26.6759 270.499 25.7069 270.015 24.7239C269.954 24.6006 269.948 24.3524 270.028 24.2717C272.006 22.2713 273.999 20.286 276.08 18.207Z" fill="#9AC95F"/>
<path d="M271.976 6.01313C272.294 5.36754 273.077 5.10156 273.723 5.41934C274.415 5.75973 275.094 6.09635 275.768 6.44539C275.911 6.51967 276.064 6.74278 276.065 6.89804C276.084 9.43561 276.078 11.9733 276.077 14.5109C276.077 14.5758 276.059 14.6409 276.037 14.7978C275.809 14.6349 275.612 14.5303 275.46 14.3796C273.861 12.7915 272.271 11.1941 270.674 9.60455C270.467 9.39833 270.367 9.2259 270.525 8.91748C271.015 7.96082 271.491 6.99675 271.976 6.01313Z" fill="#9AC95F"/>
<path d="M283.958 24.5111C283.572 25.2611 283.152 26.0748 282.715 26.9241C282.384 27.5648 281.597 27.8166 280.956 27.4854C280.299 27.1456 279.647 26.8148 278.971 26.5409C278.179 26.2199 277.951 25.7656 277.977 24.9291C278.043 22.7713 277.999 20.61 277.999 18.5508C279.95 20.5027 281.942 22.4945 283.958 24.5111Z" fill="#9AC95F"/>
<path d="M288.109 11.0625C288.761 11.3795 289.029 12.1679 288.706 12.817C288.346 13.541 287.996 14.2418 287.633 14.936C287.554 15.0855 287.335 15.2551 287.179 15.2562C284.612 15.2761 282.044 15.2703 279.396 15.2703C279.516 15.1225 279.587 15.0155 279.677 14.9262C281.353 13.2457 283.035 11.57 284.707 9.88511C284.914 9.67638 285.087 9.57655 285.385 9.72552C286.287 10.1762 287.194 10.6174 288.109 11.0625Z" fill="#9AC95F"/>
<path d="M265.58 19.2197C265.932 18.5075 266.278 17.8087 266.635 17.115C266.702 16.9851 266.876 16.8786 267.022 16.8777C269.594 16.8648 272.167 16.8695 274.739 16.8726C274.768 16.8726 274.797 16.8979 274.779 16.8893C272.94 18.7238 271.089 20.5698 269.183 22.4712C268.229 21.9945 267.216 21.4881 266.167 20.964C265.525 20.6434 265.263 19.8632 265.58 19.2197Z" fill="#9AC95F"/>
<path d="M277.998 14.2281C277.998 13.2253 277.998 12.2206 277.998 11.2159C277.998 9.79783 277.988 8.37958 278.011 6.9619C278.014 6.78542 278.151 6.52782 278.299 6.4502C279.113 6.02492 279.936 5.61583 280.773 5.20102C281.416 4.88283 282.197 5.14364 282.518 5.78463C282.962 6.66842 283.402 7.54411 283.83 8.39732C281.885 10.3416 279.959 12.2681 277.998 14.2281Z" fill="#9AC95F"/>
<path d="M265.581 11.2549C266.498 10.7968 267.396 10.3492 268.299 9.91119C268.421 9.85227 268.599 9.88187 268.695 9.97681C270.441 11.7024 272.176 13.4403 274.007 15.2705C273.71 15.2705 273.542 15.2705 273.374 15.2705C271.106 15.2705 268.838 15.2591 266.57 15.2819C266.207 15.2855 266.054 15.156 265.91 14.855C265.615 14.2384 265.31 13.627 264.998 13.0085C264.674 12.364 264.936 11.5774 265.581 11.2549Z" fill="#9AC95F"/>
<path d="M258.666 19.2616C260.034 19.2616 261.143 18.1526 261.143 16.7846C261.143 15.4166 260.034 14.3076 258.666 14.3076C257.298 14.3076 256.189 15.4166 256.189 16.7846C256.189 18.1526 257.298 19.2616 258.666 19.2616Z" fill="#9AC95F"/>
<path d="M252.967 3.71582L258.666 9.41464L264.364 3.71582H252.967Z" fill="#FF0080"/>
<path d="M264.364 29.8541L258.666 24.1553L252.967 29.8541H264.364Z" fill="#FF0080"/>
<path d="M315.854 16.8679C316.094 16.8679 316.228 16.8679 316.362 16.8679C318.844 16.8679 321.326 16.8741 323.808 16.8604C324.129 16.8586 324.294 16.9404 324.44 17.2456C324.897 18.1975 325.373 19.1404 325.859 20.1039C326.185 20.7492 325.924 21.5379 325.277 21.8601C324.55 22.222 323.825 22.5829 323.1 22.9436C322.303 23.3401 322.303 23.3397 321.693 22.7305C319.888 20.9254 318.083 19.1205 316.278 17.3148C316.159 17.1956 316.045 17.0704 315.854 16.8679Z" fill="#9AC95F"/>
<path d="M313.014 18.207C313.014 20.7544 313.018 23.1641 313.002 25.5737C313.001 25.7367 312.882 25.9312 312.737 26.0054C311.514 26.6322 310.273 27.2242 309.049 27.8487C308.743 28.0048 308.585 27.9523 308.436 27.6557C307.945 26.6759 307.432 25.7069 306.948 24.7239C306.888 24.6006 306.882 24.3524 306.962 24.2717C308.94 22.2713 310.933 20.286 313.014 18.207Z" fill="#9AC95F"/>
<path d="M308.911 6.01313C309.229 5.36754 310.012 5.10156 310.658 5.41934C311.35 5.75973 312.03 6.09635 312.703 6.44539C312.846 6.51967 313 6.74278 313.001 6.89804C313.019 9.43561 313.014 11.9733 313.012 14.5109C313.012 14.5758 312.995 14.6409 312.972 14.7978C312.745 14.6349 312.547 14.5303 312.396 14.3796C310.797 12.7915 309.207 11.1941 307.609 9.60455C307.402 9.39833 307.302 9.2259 307.461 8.91748C307.951 7.96082 308.426 6.99675 308.911 6.01313Z" fill="#9AC95F"/>
<path d="M320.888 24.5111C320.501 25.2611 320.082 26.0748 319.645 26.9241C319.314 27.5648 318.527 27.8166 317.886 27.4854C317.229 27.1456 316.577 26.8148 315.901 26.5409C315.109 26.2199 314.881 25.7656 314.906 24.9291C314.973 22.7713 314.929 20.61 314.929 18.5508C316.88 20.5027 318.872 22.4945 320.888 24.5111Z" fill="#9AC95F"/>
<path d="M325.039 11.0625C325.691 11.3795 325.959 12.1679 325.636 12.817C325.276 13.541 324.925 14.2418 324.562 14.936C324.484 15.0855 324.264 15.2551 324.109 15.2562C321.541 15.2761 318.974 15.2703 316.326 15.2703C316.446 15.1225 316.517 15.0155 316.606 14.9262C318.283 13.2457 319.964 11.57 321.636 9.88511C321.843 9.67638 322.017 9.57655 322.315 9.72552C323.217 10.1762 324.123 10.6174 325.039 11.0625Z" fill="#9AC95F"/>
<path d="M302.516 19.2197C302.867 18.5075 303.214 17.8087 303.571 17.115C303.637 16.9851 303.812 16.8786 303.958 16.8777C306.53 16.8648 309.102 16.8695 311.675 16.8726C311.704 16.8726 311.733 16.8979 311.715 16.8893C309.875 18.7238 308.025 20.5698 306.118 22.4712C305.165 21.9945 304.151 21.4881 303.102 20.964C302.46 20.6434 302.198 19.8632 302.516 19.2197Z" fill="#9AC95F"/>
<path d="M314.928 14.2281C314.928 13.2253 314.928 12.2206 314.928 11.2159C314.928 9.79783 314.918 8.37958 314.941 6.9619C314.944 6.78542 315.08 6.52782 315.229 6.4502C316.043 6.02492 316.865 5.61583 317.703 5.20102C318.346 4.88283 319.126 5.14364 319.448 5.78463C319.892 6.66842 320.331 7.54411 320.76 8.39732C318.815 10.3416 316.888 12.2681 314.928 14.2281Z" fill="#9AC95F"/>
<path d="M302.511 11.2549C303.427 10.7968 304.326 10.3492 305.229 9.91119C305.351 9.85227 305.529 9.88187 305.625 9.97681C307.371 11.7024 309.105 13.4403 310.937 15.2705C310.64 15.2705 310.472 15.2705 310.303 15.2705C308.035 15.2705 305.767 15.2591 303.5 15.2819C303.137 15.2855 302.984 15.156 302.84 14.855C302.545 14.2384 302.239 13.627 301.928 13.0085C301.604 12.364 301.866 11.5774 302.511 11.2549Z" fill="#9AC95F"/>
<path d="M295.6 19.2616C296.968 19.2616 298.077 18.1526 298.077 16.7846C298.077 15.4166 296.968 14.3076 295.6 14.3076C294.232 14.3076 293.123 15.4166 293.123 16.7846C293.123 18.1526 294.232 19.2616 295.6 19.2616Z" fill="#9AC95F"/>
<path d="M289.904 3.71582L295.603 9.41464L301.302 3.71582H289.904Z" fill="#FF0080"/>
<path d="M301.302 29.8541L295.603 24.1553L289.904 29.8541H301.302Z" fill="#FF0080"/>
<path d="M352.789 16.8679C353.029 16.8679 353.163 16.8679 353.298 16.8679C355.78 16.8679 358.262 16.8741 360.743 16.8604C361.064 16.8586 361.229 16.9404 361.376 17.2456C361.833 18.1975 362.308 19.1404 362.795 20.1039C363.121 20.7492 362.859 21.5379 362.212 21.8601C361.485 22.222 360.761 22.5829 360.036 22.9436C359.238 23.3401 359.238 23.3397 358.629 22.7305C356.824 20.9254 355.018 19.1205 353.213 17.3148C353.094 17.1956 352.981 17.0704 352.789 16.8679Z" fill="#9AC95F"/>
<path d="M349.945 18.207C349.945 20.7544 349.95 23.1641 349.934 25.5737C349.933 25.7367 349.813 25.9312 349.668 26.0054C348.445 26.6322 347.205 27.2242 345.98 27.8487C345.674 28.0048 345.516 27.9523 345.368 27.6557C344.877 26.6759 344.364 25.7069 343.88 24.7239C343.819 24.6006 343.814 24.3524 343.894 24.2717C345.871 22.2713 347.864 20.286 349.945 18.207Z" fill="#9AC95F"/>
<path d="M345.845 6.01313C346.163 5.36754 346.946 5.10156 347.592 5.41934C348.284 5.75973 348.964 6.09635 349.637 6.44539C349.78 6.51967 349.934 6.74278 349.935 6.89804C349.953 9.43561 349.948 11.9733 349.946 14.5109C349.946 14.5758 349.928 14.6409 349.906 14.7978C349.678 14.6349 349.481 14.5303 349.329 14.3796C347.73 12.7915 346.141 11.1941 344.543 9.60455C344.336 9.39833 344.236 9.2259 344.394 8.91748C344.884 7.96082 345.36 6.99675 345.845 6.01313Z" fill="#9AC95F"/>
<path d="M357.823 24.5111C357.437 25.2611 357.017 26.0748 356.58 26.9241C356.25 27.5648 355.462 27.8166 354.822 27.4854C354.164 27.1456 353.512 26.8148 352.836 26.5409C352.045 26.2199 351.816 25.7656 351.842 24.9291C351.909 22.7713 351.864 20.61 351.864 18.5508C353.816 20.5027 355.807 22.4945 357.823 24.5111Z" fill="#9AC95F"/>
<path d="M361.973 11.0625C362.625 11.3795 362.893 12.1679 362.57 12.817C362.21 13.541 361.859 14.2418 361.496 14.936C361.418 15.0855 361.198 15.2551 361.043 15.2562C358.475 15.2761 355.907 15.2703 353.26 15.2703C353.379 15.1225 353.451 15.0155 353.54 14.9262C355.216 13.2457 356.898 11.57 358.57 9.88511C358.777 9.67638 358.951 9.57655 359.249 9.72552C360.151 10.1762 361.057 10.6174 361.973 11.0625Z" fill="#9AC95F"/>
<path d="M339.445 19.2197C339.797 18.5075 340.143 17.8087 340.5 17.115C340.567 16.9851 340.741 16.8786 340.887 16.8777C343.46 16.8648 346.032 16.8695 348.604 16.8726C348.633 16.8726 348.662 16.8979 348.644 16.8893C346.805 18.7238 344.954 20.5698 343.048 22.4712C342.094 21.9945 341.081 21.4881 340.032 20.964C339.39 20.6434 339.128 19.8632 339.445 19.2197Z" fill="#9AC95F"/>
<path d="M351.863 14.2281C351.863 13.2253 351.863 12.2206 351.863 11.2159C351.863 9.79783 351.853 8.37958 351.876 6.9619C351.879 6.78542 352.016 6.52782 352.164 6.4502C352.978 6.02492 353.8 5.61583 354.638 5.20102C355.281 4.88283 356.061 5.14364 356.383 5.78463C356.827 6.66842 357.267 7.54411 357.695 8.39732C355.75 10.3416 353.823 12.2681 351.863 14.2281Z" fill="#9AC95F"/>
<path d="M339.444 11.2549C340.361 10.7968 341.26 10.3492 342.163 9.91119C342.284 9.85227 342.462 9.88187 342.558 9.97681C344.305 11.7024 346.039 13.4403 347.871 15.2705C347.573 15.2705 347.405 15.2705 347.237 15.2705C344.969 15.2705 342.701 15.2591 340.433 15.2819C340.071 15.2855 339.917 15.156 339.773 14.855C339.479 14.2384 339.173 13.627 338.862 13.0085C338.538 12.364 338.799 11.5774 339.444 11.2549Z" fill="#9AC95F"/>
<path d="M332.532 19.2616C333.9 19.2616 335.009 18.1526 335.009 16.7846C335.009 15.4166 333.9 14.3076 332.532 14.3076C331.164 14.3076 330.055 15.4166 330.055 16.7846C330.055 18.1526 331.164 19.2616 332.532 19.2616Z" fill="#9AC95F"/>
<path d="M326.836 3.71582L332.535 9.41464L338.234 3.71582H326.836Z" fill="#FF0080"/>
<path d="M338.234 29.8541L332.535 24.1553L326.836 29.8541H338.234Z" fill="#FF0080"/>
<path d="M389.723 16.8679C389.963 16.8679 390.097 16.8679 390.231 16.8679C392.713 16.8679 395.195 16.8741 397.677 16.8604C397.998 16.8586 398.163 16.9404 398.309 17.2456C398.766 18.1975 399.242 19.1404 399.729 20.1039C400.054 20.7492 399.793 21.5379 399.146 21.8601C398.419 22.222 397.694 22.5829 396.969 22.9436C396.172 23.3401 396.172 23.3397 395.562 22.7305C393.757 20.9254 391.952 19.1205 390.147 17.3148C390.028 17.1956 389.915 17.0704 389.723 16.8679Z" fill="#9AC95F"/>
<path d="M386.879 18.207C386.879 20.7544 386.884 23.1641 386.867 25.5737C386.866 25.7367 386.747 25.9312 386.602 26.0054C385.379 26.6322 384.138 27.2242 382.914 27.8487C382.608 28.0048 382.45 27.9523 382.301 27.6557C381.811 26.6759 381.298 25.7069 380.814 24.7239C380.753 24.6006 380.747 24.3524 380.827 24.2717C382.805 22.2713 384.798 20.286 386.879 18.207Z" fill="#9AC95F"/>
<path d="M382.771 6.01313C383.089 5.36754 383.872 5.10156 384.518 5.41934C385.21 5.75973 385.889 6.09635 386.563 6.44539C386.706 6.51967 386.859 6.74278 386.86 6.89804C386.879 9.43561 386.873 11.9733 386.872 14.5109C386.872 14.5758 386.854 14.6409 386.831 14.7978C386.604 14.6349 386.407 14.5303 386.255 14.3796C384.656 12.7915 383.066 11.1941 381.469 9.60455C381.262 9.39833 381.162 9.2259 381.32 8.91748C381.81 7.96082 382.286 6.99675 382.771 6.01313Z" fill="#9AC95F"/>
<path d="M394.753 24.5111C394.366 25.2611 393.947 26.0748 393.509 26.9241C393.179 27.5648 392.391 27.8166 391.751 27.4854C391.094 27.1456 390.442 26.8148 389.766 26.5409C388.974 26.2199 388.745 25.7656 388.771 24.9291C388.838 22.7713 388.794 20.61 388.794 18.5508C390.745 20.5027 392.737 22.4945 394.753 24.5111Z" fill="#9AC95F"/>
<path d="M398.902 11.0625C399.554 11.3795 399.822 12.1679 399.499 12.817C399.139 13.541 398.788 14.2418 398.425 14.936C398.347 15.0855 398.128 15.2551 397.972 15.2562C395.405 15.2761 392.837 15.2703 390.189 15.2703C390.309 15.1225 390.38 15.0155 390.47 14.9262C392.146 13.2457 393.827 11.57 395.5 9.88511C395.707 9.67638 395.88 9.57655 396.178 9.72552C397.08 10.1762 397.987 10.6174 398.902 11.0625Z" fill="#9AC95F"/>
<path d="M376.381 19.2197C376.732 18.5075 377.079 17.8087 377.436 17.115C377.503 16.9851 377.677 16.8786 377.823 16.8777C380.395 16.8648 382.967 16.8695 385.54 16.8726C385.569 16.8726 385.598 16.8979 385.58 16.8893C383.741 18.7238 381.89 20.5698 379.984 22.4712C379.03 21.9945 378.017 21.4881 376.968 20.964C376.326 20.6434 376.063 19.8632 376.381 19.2197Z" fill="#9AC95F"/>
<path d="M388.793 14.2281C388.793 13.2253 388.793 12.2206 388.793 11.2159C388.793 9.79783 388.783 8.37958 388.806 6.9619C388.809 6.78542 388.945 6.52782 389.094 6.4502C389.908 6.02492 390.73 5.61583 391.568 5.20102C392.211 4.88283 392.991 5.14364 393.313 5.78463C393.757 6.66842 394.197 7.54411 394.625 8.39732C392.68 10.3416 390.753 12.2681 388.793 14.2281Z" fill="#9AC95F"/>
<path d="M376.38 11.2549C377.296 10.7968 378.195 10.3492 379.098 9.91119C379.22 9.85227 379.398 9.88187 379.494 9.97681C381.24 11.7024 382.975 13.4403 384.806 15.2705C384.509 15.2705 384.341 15.2705 384.172 15.2705C381.905 15.2705 379.637 15.2591 377.369 15.2819C377.006 15.2855 376.853 15.156 376.709 14.855C376.414 14.2384 376.109 13.627 375.797 13.0085C375.473 12.364 375.735 11.5774 376.38 11.2549Z" fill="#9AC95F"/>
<path d="M369.465 19.2616C370.833 19.2616 371.942 18.1526 371.942 16.7846C371.942 15.4166 370.833 14.3076 369.465 14.3076C368.097 14.3076 366.988 15.4166 366.988 16.7846C366.988 18.1526 368.097 19.2616 369.465 19.2616Z" fill="#9AC95F"/>
<path d="M363.77 3.71582L369.468 9.41464L375.167 3.71582H363.77Z" fill="#FF0080"/>
<path d="M375.167 29.8541L369.468 24.1553L363.77 29.8541H375.167Z" fill="#FF0080"/>
<path d="M426.654 16.8679C426.894 16.8679 427.029 16.8679 427.163 16.8679C429.645 16.8679 432.127 16.8741 434.609 16.8604C434.929 16.8586 435.095 16.9404 435.241 17.2456C435.698 18.1975 436.174 19.1404 436.66 20.1039C436.986 20.7492 436.724 21.5379 436.077 21.8601C435.351 22.222 434.626 22.5829 433.901 22.9436C433.104 23.3401 433.103 23.3397 432.494 22.7305C430.689 20.9254 428.884 19.1205 427.079 17.3148C426.96 17.1956 426.846 17.0704 426.654 16.8679Z" fill="#9AC95F"/>
<path d="M423.811 18.207C423.811 20.7544 423.815 23.1641 423.799 25.5737C423.798 25.7367 423.679 25.9312 423.534 26.0054C422.311 26.6322 421.07 27.2242 419.846 27.8487C419.54 28.0048 419.381 27.9523 419.233 27.6557C418.742 26.6759 418.229 25.7069 417.745 24.7239C417.684 24.6006 417.679 24.3524 417.759 24.2717C419.737 22.2713 421.73 20.286 423.811 18.207Z" fill="#9AC95F"/>
<path d="M419.706 6.01313C420.024 5.36754 420.807 5.10156 421.453 5.41934C422.145 5.75973 422.825 6.09635 423.498 6.44539C423.641 6.51967 423.795 6.74278 423.796 6.89804C423.814 9.43561 423.809 11.9733 423.807 14.5109C423.807 14.5758 423.79 14.6409 423.767 14.7978C423.539 14.6349 423.342 14.5303 423.191 14.3796C421.592 12.7915 420.002 11.1941 418.404 9.60455C418.197 9.39833 418.097 9.2259 418.255 8.91748C418.746 7.96082 419.221 6.99675 419.706 6.01313Z" fill="#9AC95F"/>
<path d="M431.685 24.5111C431.298 25.2611 430.879 26.0748 430.441 26.9241C430.111 27.5648 429.323 27.8166 428.683 27.4854C428.026 27.1456 427.373 26.8148 426.698 26.5409C425.906 26.2199 425.677 25.7656 425.703 24.9291C425.77 22.7713 425.725 20.61 425.725 18.5508C427.677 20.5027 429.668 22.4945 431.685 24.5111Z" fill="#9AC95F"/>
<path d="M435.838 11.0625C436.49 11.3795 436.758 12.1679 436.435 12.817C436.075 13.541 435.724 14.2418 435.361 14.936C435.283 15.0855 435.063 15.2551 434.908 15.2562C432.34 15.2761 429.772 15.2703 427.125 15.2703C427.244 15.1225 427.316 15.0155 427.405 14.9262C429.082 13.2457 430.763 11.57 432.435 9.88511C432.642 9.67638 432.816 9.57655 433.114 9.72552C434.016 10.1762 434.922 10.6174 435.838 11.0625Z" fill="#9AC95F"/>
<path d="M413.311 19.2197C413.662 18.5075 414.009 17.8087 414.366 17.115C414.432 16.9851 414.607 16.8786 414.753 16.8777C417.325 16.8648 419.897 16.8695 422.469 16.8726C422.499 16.8726 422.528 16.8979 422.51 16.8893C420.67 18.7238 418.82 20.5698 416.913 22.4712C415.959 21.9945 414.946 21.4881 413.897 20.964C413.255 20.6434 412.993 19.8632 413.311 19.2197Z" fill="#9AC95F"/>
<path d="M425.729 14.2281C425.729 13.2253 425.729 12.2206 425.729 11.2159C425.729 9.79783 425.719 8.37958 425.742 6.9619C425.745 6.78542 425.881 6.52782 426.03 6.4502C426.844 6.02492 427.666 5.61583 428.504 5.20102C429.147 4.88283 429.927 5.14364 430.249 5.78463C430.692 6.66842 431.132 7.54411 431.56 8.39732C429.616 10.3416 427.689 12.2681 425.729 14.2281Z" fill="#9AC95F"/>
<path d="M413.31 11.2549C414.226 10.7968 415.125 10.3492 416.028 9.91119C416.149 9.85227 416.328 9.88187 416.424 9.97681C418.17 11.7024 419.904 13.4403 421.736 15.2705C421.439 15.2705 421.271 15.2705 421.102 15.2705C418.834 15.2705 416.566 15.2591 414.299 15.2819C413.936 15.2855 413.783 15.156 413.639 14.855C413.344 14.2384 413.038 13.627 412.727 13.0085C412.403 12.364 412.664 11.5774 413.31 11.2549Z" fill="#9AC95F"/>
<path d="M406.397 19.2616C407.765 19.2616 408.874 18.1526 408.874 16.7846C408.874 15.4166 407.765 14.3076 406.397 14.3076C405.029 14.3076 403.92 15.4166 403.92 16.7846C403.92 18.1526 405.029 19.2616 406.397 19.2616Z" fill="#9AC95F"/>
<path d="M400.699 3.71582L406.398 9.41464L412.097 3.71582H400.699Z" fill="#FF0080"/>
<path d="M412.097 29.8541L406.398 24.1553L400.699 29.8541H412.097Z" fill="#FF0080"/>
<path d="M463.588 16.8679C463.828 16.8679 463.962 16.8679 464.096 16.8679C466.578 16.8679 469.06 16.8741 471.542 16.8604C471.863 16.8586 472.028 16.9404 472.175 17.2456C472.632 18.1975 473.107 19.1404 473.594 20.1039C473.92 20.7492 473.658 21.5379 473.011 21.8601C472.284 22.222 471.559 22.5829 470.834 22.9436C470.037 23.3401 470.037 23.3397 469.428 22.7305C467.623 20.9254 465.817 19.1205 464.013 17.3148C463.893 17.1956 463.78 17.0704 463.588 16.8679Z" fill="#9AC95F"/>
<path d="M460.744 18.207C460.744 20.7544 460.749 23.1641 460.733 25.5737C460.732 25.7367 460.613 25.9312 460.468 26.0054C459.244 26.6322 458.004 27.2242 456.78 27.8487C456.473 28.0048 456.315 27.9523 456.167 27.6557C455.676 26.6759 455.163 25.7069 454.679 24.7239C454.618 24.6006 454.613 24.3524 454.693 24.2717C456.67 22.2713 458.663 20.286 460.744 18.207Z" fill="#9AC95F"/>
<path d="M456.64 6.01313C456.958 5.36754 457.741 5.10156 458.387 5.41934C459.079 5.75973 459.758 6.09635 460.432 6.44539C460.575 6.51967 460.728 6.74278 460.729 6.89804C460.748 9.43561 460.742 11.9733 460.741 14.5109C460.741 14.5758 460.723 14.6409 460.701 14.7978C460.473 14.6349 460.276 14.5303 460.124 14.3796C458.525 12.7915 456.936 11.1941 455.338 9.60455C455.131 9.39833 455.031 9.2259 455.189 8.91748C455.679 7.96082 456.155 6.99675 456.64 6.01313Z" fill="#9AC95F"/>
<path d="M468.616 24.5111C468.23 25.2611 467.81 26.0748 467.373 26.9241C467.043 27.5648 466.255 27.8166 465.614 27.4854C464.957 27.1456 464.305 26.8148 463.629 26.5409C462.837 26.2199 462.609 25.7656 462.635 24.9291C462.702 22.7713 462.657 20.61 462.657 18.5508C464.609 20.5027 466.6 22.4945 468.616 24.5111Z" fill="#9AC95F"/>
<path d="M472.768 11.0625C473.42 11.3795 473.688 12.1679 473.365 12.817C473.004 13.541 472.654 14.2418 472.291 14.936C472.213 15.0855 471.993 15.2551 471.837 15.2562C469.27 15.2761 466.702 15.2703 464.055 15.2703C464.174 15.1225 464.246 15.0155 464.335 14.9262C466.011 13.2457 467.693 11.57 469.365 9.88511C469.572 9.67638 469.746 9.57655 470.044 9.72552C470.945 10.1762 471.852 10.6174 472.768 11.0625Z" fill="#9AC95F"/>
<path d="M450.244 19.2197C450.596 18.5075 450.942 17.8087 451.299 17.115C451.366 16.9851 451.54 16.8786 451.686 16.8777C454.259 16.8648 456.831 16.8695 459.403 16.8726C459.432 16.8726 459.461 16.8979 459.443 16.8893C457.604 18.7238 455.753 20.5698 453.847 22.4712C452.893 21.9945 451.88 21.4881 450.831 20.964C450.189 20.6434 449.927 19.8632 450.244 19.2197Z" fill="#9AC95F"/>
<path d="M462.659 14.2281C462.659 13.2253 462.659 12.2206 462.659 11.2159C462.659 9.79783 462.648 8.37958 462.672 6.9619C462.675 6.78542 462.811 6.52782 462.96 6.4502C463.774 6.02492 464.596 5.61583 465.434 5.20102C466.076 4.88283 466.857 5.14364 467.179 5.78463C467.622 6.66842 468.062 7.54411 468.49 8.39732C466.546 10.3416 464.619 12.2681 462.659 14.2281Z" fill="#9AC95F"/>
<path d="M450.245 11.2549C451.162 10.7968 452.06 10.3492 452.964 9.91119C453.085 9.85227 453.263 9.88187 453.359 9.97681C455.106 11.7024 456.84 13.4403 458.671 15.2705C458.374 15.2705 458.206 15.2705 458.038 15.2705C455.77 15.2705 453.502 15.2591 451.234 15.2819C450.871 15.2855 450.718 15.156 450.574 14.855C450.279 14.2384 449.974 13.627 449.663 13.0085C449.338 12.364 449.6 11.5774 450.245 11.2549Z" fill="#9AC95F"/>
<path d="M443.33 19.2616C444.698 19.2616 445.807 18.1526 445.807 16.7846C445.807 15.4166 444.698 14.3076 443.33 14.3076C441.962 14.3076 440.854 15.4166 440.854 16.7846C440.854 18.1526 441.962 19.2616 443.33 19.2616Z" fill="#9AC95F"/>
<path d="M437.635 3.71582L443.333 9.41464L449.032 3.71582H437.635Z" fill="#FF0080"/>
<path d="M449.032 29.8541L443.333 24.1553L437.635 29.8541H449.032Z" fill="#FF0080"/>
<path d="M500.518 16.8679C500.758 16.8679 500.892 16.8679 501.026 16.8679C503.508 16.8679 505.99 16.8741 508.472 16.8604C508.793 16.8586 508.958 16.9404 509.104 17.2456C509.561 18.1975 510.037 19.1404 510.523 20.1039C510.849 20.7492 510.588 21.5379 509.941 21.8601C509.214 22.222 508.489 22.5829 507.764 22.9436C506.967 23.3401 506.967 23.3397 506.357 22.7305C504.552 20.9254 502.747 19.1205 500.942 17.3148C500.823 17.1956 500.71 17.0704 500.518 16.8679Z" fill="#9AC95F"/>
<path d="M497.674 18.207C497.674 20.7544 497.678 23.1641 497.662 25.5737C497.661 25.7367 497.542 25.9312 497.397 26.0054C496.174 26.6322 494.933 27.2242 493.709 27.8487C493.403 28.0048 493.245 27.9523 493.096 27.6557C492.605 26.6759 492.092 25.7069 491.608 24.7239C491.548 24.6006 491.542 24.3524 491.622 24.2717C493.6 22.2713 495.593 20.286 497.674 18.207Z" fill="#9AC95F"/>
<path d="M493.575 6.01313C493.893 5.36754 494.677 5.10156 495.322 5.41934C496.014 5.75973 496.694 6.09635 497.367 6.44539C497.511 6.51967 497.664 6.74278 497.665 6.89804C497.683 9.43561 497.678 11.9733 497.676 14.5109C497.676 14.5758 497.659 14.6409 497.636 14.7978C497.409 14.6349 497.211 14.5303 497.06 14.3796C495.461 12.7915 493.871 11.1941 492.273 9.60455C492.066 9.39833 491.967 9.2259 492.125 8.91748C492.615 7.96082 493.09 6.99675 493.575 6.01313Z" fill="#9AC95F"/>
<path d="M505.55 24.5111C505.163 25.2611 504.744 26.0748 504.306 26.9241C503.976 27.5648 503.188 27.8166 502.548 27.4854C501.891 27.1456 501.239 26.8148 500.563 26.5409C499.771 26.2199 499.542 25.7656 499.568 24.9291C499.635 22.7713 499.591 20.61 499.591 18.5508C501.542 20.5027 503.534 22.4945 505.55 24.5111Z" fill="#9AC95F"/>
<path d="M509.701 11.0625C510.353 11.3795 510.621 12.1679 510.298 12.817C509.938 13.541 509.587 14.2418 509.224 14.936C509.146 15.0855 508.926 15.2551 508.771 15.2562C506.203 15.2761 503.636 15.2703 500.988 15.2703C501.108 15.1225 501.179 15.0155 501.268 14.9262C502.945 13.2457 504.626 11.57 506.298 9.88511C506.505 9.67638 506.679 9.57655 506.977 9.72552C507.879 10.1762 508.786 10.6174 509.701 11.0625Z" fill="#9AC95F"/>
<path d="M487.18 19.2197C487.531 18.5075 487.878 17.8087 488.235 17.115C488.301 16.9851 488.476 16.8786 488.622 16.8777C491.194 16.8648 493.766 16.8695 496.339 16.8726C496.368 16.8726 496.397 16.8979 496.379 16.8893C494.539 18.7238 492.689 20.5698 490.782 22.4712C489.829 21.9945 488.815 21.4881 487.766 20.964C487.124 20.6434 486.862 19.8632 487.18 19.2197Z" fill="#9AC95F"/>
<path d="M499.594 14.2281C499.594 13.2253 499.594 12.2206 499.594 11.2159C499.594 9.79783 499.584 8.37958 499.607 6.9619C499.61 6.78542 499.746 6.52782 499.895 6.4502C500.709 6.02492 501.531 5.61583 502.369 5.20102C503.012 4.88283 503.792 5.14364 504.114 5.78463C504.558 6.66842 504.997 7.54411 505.426 8.39732C503.481 10.3416 501.554 12.2681 499.594 14.2281Z" fill="#9AC95F"/>
<path d="M487.175 11.2549C488.091 10.7968 488.99 10.3492 489.893 9.91119C490.015 9.85227 490.193 9.88187 490.289 9.97681C492.035 11.7024 493.77 13.4403 495.601 15.2705C495.304 15.2705 495.136 15.2705 494.967 15.2705C492.699 15.2705 490.431 15.2591 488.164 15.2819C487.801 15.2855 487.648 15.156 487.504 14.855C487.209 14.2384 486.903 13.627 486.592 13.0085C486.268 12.364 486.53 11.5774 487.175 11.2549Z" fill="#9AC95F"/>
<path d="M480.26 19.2616C481.628 19.2616 482.737 18.1526 482.737 16.7846C482.737 15.4166 481.628 14.3076 480.26 14.3076C478.892 14.3076 477.783 15.4166 477.783 16.7846C477.783 18.1526 478.892 19.2616 480.26 19.2616Z" fill="#9AC95F"/>
<path d="M474.564 3.71582L480.263 9.41464L485.962 3.71582H474.564Z" fill="#FF0080"/>
<path d="M485.962 29.8541L480.263 24.1553L474.564 29.8541H485.962Z" fill="#FF0080"/>
<path d="M537.453 16.8679C537.693 16.8679 537.827 16.8679 537.962 16.8679C540.444 16.8679 542.926 16.8741 545.407 16.8604C545.728 16.8586 545.893 16.9404 546.04 17.2456C546.497 18.1975 546.972 19.1404 547.459 20.1039C547.785 20.7492 547.523 21.5379 546.876 21.8601C546.149 22.222 545.425 22.5829 544.7 22.9436C543.902 23.3401 543.902 23.3397 543.293 22.7305C541.488 20.9254 539.682 19.1205 537.878 17.3148C537.758 17.1956 537.645 17.0704 537.453 16.8679Z" fill="#9AC95F"/>
<path d="M534.609 18.207C534.609 20.7544 534.614 23.1641 534.598 25.5737C534.597 25.7367 534.477 25.9312 534.332 26.0054C533.109 26.6322 531.869 27.2242 530.644 27.8487C530.338 28.0048 530.18 27.9523 530.032 27.6557C529.541 26.6759 529.028 25.7069 528.544 24.7239C528.483 24.6006 528.478 24.3524 528.557 24.2717C530.535 22.2713 532.528 20.286 534.609 18.207Z" fill="#9AC95F"/>
<path d="M530.501 6.01313C530.819 5.36754 531.602 5.10156 532.248 5.41934C532.94 5.75973 533.62 6.09635 534.293 6.44539C534.436 6.51967 534.59 6.74278 534.591 6.89804C534.609 9.43561 534.604 11.9733 534.602 14.5109C534.602 14.5758 534.585 14.6409 534.562 14.7978C534.334 14.6349 534.137 14.5303 533.985 14.3796C532.387 12.7915 530.797 11.1941 529.199 9.60455C528.992 9.39833 528.892 9.2259 529.05 8.91748C529.541 7.96082 530.016 6.99675 530.501 6.01313Z" fill="#9AC95F"/>
<path d="M542.481 24.5111C542.095 25.2611 541.676 26.0748 541.238 26.9241C540.908 27.5648 540.12 27.8166 539.48 27.4854C538.823 27.1456 538.17 26.8148 537.495 26.5409C536.703 26.2199 536.474 25.7656 536.5 24.9291C536.567 22.7713 536.522 20.61 536.522 18.5508C538.474 20.5027 540.465 22.4945 542.481 24.5111Z" fill="#9AC95F"/>
<path d="M546.637 11.0625C547.289 11.3795 547.557 12.1679 547.234 12.817C546.874 13.541 546.523 14.2418 546.16 14.936C546.082 15.0855 545.862 15.2551 545.707 15.2562C543.139 15.2761 540.571 15.2703 537.924 15.2703C538.043 15.1225 538.115 15.0155 538.204 14.9262C539.88 13.2457 541.562 11.57 543.234 9.88511C543.441 9.67638 543.615 9.57655 543.913 9.72552C544.815 10.1762 545.721 10.6174 546.637 11.0625Z" fill="#9AC95F"/>
<path d="M524.109 19.2197C524.461 18.5075 524.808 17.8087 525.164 17.115C525.231 16.9851 525.406 16.8786 525.552 16.8777C528.124 16.8648 530.696 16.8695 533.268 16.8726C533.297 16.8726 533.327 16.8979 533.308 16.8893C531.469 18.7238 529.618 20.5698 527.712 22.4712C526.758 21.9945 525.745 21.4881 524.696 20.964C524.054 20.6434 523.792 19.8632 524.109 19.2197Z" fill="#9AC95F"/>
<path d="M536.528 14.2281C536.528 13.2253 536.528 12.2206 536.528 11.2159C536.528 9.79783 536.517 8.37958 536.541 6.9619C536.543 6.78542 536.68 6.52782 536.829 6.4502C537.642 6.02492 538.465 5.61583 539.302 5.20102C539.945 4.88283 540.726 5.14364 541.047 5.78463C541.491 6.66842 541.931 7.54411 542.359 8.39732C540.415 10.3416 538.488 12.2681 536.528 14.2281Z" fill="#9AC95F"/>
<path d="M524.108 11.2549C525.025 10.7968 525.923 10.3492 526.827 9.91119C526.948 9.85227 527.126 9.88187 527.222 9.97681C528.969 11.7024 530.703 13.4403 532.535 15.2705C532.237 15.2705 532.069 15.2705 531.901 15.2705C529.633 15.2705 527.365 15.2591 525.097 15.2819C524.735 15.2855 524.581 15.156 524.437 14.855C524.143 14.2384 523.837 13.627 523.526 13.0085C523.202 12.364 523.463 11.5774 524.108 11.2549Z" fill="#9AC95F"/>
<path d="M517.196 19.2616C518.564 19.2616 519.673 18.1526 519.673 16.7846C519.673 15.4166 518.564 14.3076 517.196 14.3076C515.828 14.3076 514.719 15.4166 514.719 16.7846C514.719 18.1526 515.828 19.2616 517.196 19.2616Z" fill="#9AC95F"/>
<path d="M511.496 3.71582L517.195 9.41464L522.894 3.71582H511.496Z" fill="#FF0080"/>
<path d="M522.894 29.8541L517.195 24.1553L511.496 29.8541H522.894Z" fill="#FF0080"/>
<path d="M0 3.71582V9.27391L0.140596 9.41464L5.83941 3.71582H0Z" fill="#FF0080"/>
<path d="M0 29.8541H5.83941L0.140596 24.1553L0 24.2959V29.8541Z" fill="#FF0080"/>
<path d="M0.140736 14.3076C0.0932653 14.3076 0.0469119 14.3121 0 14.3147V19.2546C0.0467723 19.2572 0.0931257 19.2617 0.140736 19.2617C1.50872 19.2617 2.61785 18.1527 2.61785 16.7847C2.61785 15.4167 1.50886 14.3076 0.140736 14.3076Z" fill="#9AC95F"/>
<path d="M554.049 3.71582H548.43L554.049 9.33492V3.71582Z" fill="#FF0080"/>
<path d="M554.046 14.3115C552.715 14.3541 551.648 15.4434 551.648 16.7846C551.648 18.1256 552.715 19.2151 554.046 19.2577V14.3115Z" fill="#9AC95F"/>
<path d="M554.049 24.2344L548.43 29.8535H554.049V24.2344Z" fill="#FF0080"/>
<path d="M1108.18 0.475586H554.074V2.31046H1108.18V0.475586Z" fill="#9AC95F"/>
<path d="M1108.18 31.3652H554.074V33.2001H1108.18V31.3652Z" fill="#9AC95F"/>
<path d="M574.477 16.8679C574.717 16.8679 574.851 16.8679 574.985 16.8679C577.467 16.8679 579.949 16.8741 582.431 16.8604C582.752 16.8586 582.917 16.9404 583.063 17.2456C583.52 18.1975 583.996 19.1404 584.482 20.1039C584.808 20.7492 584.547 21.5379 583.9 21.8601C583.173 22.222 582.448 22.5829 581.723 22.9436C580.926 23.3401 580.926 23.3397 580.316 22.7305C578.511 20.9254 576.706 19.1205 574.901 17.3148C574.782 17.1956 574.669 17.0704 574.477 16.8679Z" fill="#9AC95F"/>
<path d="M571.629 18.207C571.629 20.7544 571.634 23.1641 571.618 25.5737C571.617 25.7367 571.497 25.9312 571.352 26.0054C570.129 26.6322 568.888 27.2242 567.664 27.8487C567.358 28.0048 567.2 27.9523 567.051 27.6557C566.561 26.6759 566.048 25.7069 565.564 24.7239C565.503 24.6006 565.497 24.3524 565.577 24.2717C567.555 22.2713 569.548 20.286 571.629 18.207Z" fill="#9AC95F"/>
<path d="M567.528 6.01313C567.846 5.36754 568.63 5.10156 569.275 5.41934C569.967 5.75973 570.647 6.09635 571.32 6.44539C571.463 6.51967 571.617 6.74278 571.618 6.89804C571.636 9.43561 571.631 11.9733 571.629 14.5109C571.629 14.5758 571.612 14.6409 571.589 14.7978C571.362 14.6349 571.164 14.5303 571.013 14.3796C569.414 12.7915 567.824 11.1941 566.227 9.60455C566.019 9.39833 565.92 9.2259 566.078 8.91748C566.568 7.96082 567.043 6.99675 567.528 6.01313Z" fill="#9AC95F"/>
<path d="M579.507 24.5111C579.12 25.2611 578.701 26.0748 578.263 26.9241C577.933 27.5648 577.145 27.8166 576.505 27.4854C575.848 27.1456 575.196 26.8148 574.52 26.5409C573.728 26.2199 573.499 25.7656 573.525 24.9291C573.592 22.7713 573.548 20.61 573.548 18.5508C575.499 20.5027 577.491 22.4945 579.507 24.5111Z" fill="#9AC95F"/>
<path d="M583.656 11.0625C584.308 11.3795 584.576 12.1679 584.253 12.817C583.893 13.541 583.542 14.2418 583.179 14.936C583.101 15.0855 582.882 15.2551 582.726 15.2562C580.159 15.2761 577.591 15.2703 574.943 15.2703C575.063 15.1225 575.134 15.0155 575.223 14.9262C576.9 13.2457 578.581 11.57 580.253 9.88511C580.461 9.67638 580.634 9.57655 580.932 9.72552C581.834 10.1762 582.741 10.6174 583.656 11.0625Z" fill="#9AC95F"/>
<path d="M561.133 19.2197C561.484 18.5075 561.831 17.8087 562.188 17.115C562.255 16.9851 562.429 16.8786 562.575 16.8777C565.147 16.8648 567.719 16.8695 570.292 16.8726C570.321 16.8726 570.35 16.8979 570.332 16.8893C568.492 18.7238 566.642 20.5698 564.735 22.4712C563.782 21.9945 562.769 21.4881 561.72 20.964C561.078 20.6434 560.815 19.8632 561.133 19.2197Z" fill="#9AC95F"/>
<path d="M573.547 14.2281C573.547 13.2253 573.547 12.2206 573.547 11.2159C573.547 9.79783 573.537 8.37958 573.56 6.9619C573.563 6.78542 573.699 6.52782 573.848 6.4502C574.662 6.02492 575.484 5.61583 576.322 5.20102C576.965 4.88283 577.745 5.14364 578.067 5.78463C578.511 6.66842 578.95 7.54411 579.379 8.39732C577.434 10.3416 575.507 12.2681 573.547 14.2281Z" fill="#9AC95F"/>
<path d="M561.128 11.2549C562.044 10.7968 562.943 10.3492 563.846 9.91119C563.968 9.85227 564.146 9.88187 564.242 9.97681C565.988 11.7024 567.723 13.4403 569.554 15.2705C569.257 15.2705 569.089 15.2705 568.921 15.2705C566.653 15.2705 564.385 15.2591 562.117 15.2819C561.754 15.2855 561.601 15.156 561.457 14.855C561.162 14.2384 560.857 13.627 560.545 13.0085C560.221 12.364 560.483 11.5774 561.128 11.2549Z" fill="#9AC95F"/>
<path d="M611.406 16.8679C611.646 16.8679 611.781 16.8679 611.915 16.8679C614.397 16.8679 616.879 16.8741 619.361 16.8604C619.681 16.8586 619.846 16.9404 619.993 17.2456C620.45 18.1975 620.926 19.1404 621.412 20.1039C621.738 20.7492 621.476 21.5379 620.829 21.8601C620.103 22.222 619.378 22.5829 618.653 22.9436C617.855 23.3401 617.855 23.3397 617.246 22.7305C615.441 20.9254 613.635 19.1205 611.831 17.3148C611.712 17.1956 611.598 17.0704 611.406 16.8679Z" fill="#9AC95F"/>
<path d="M608.563 18.207C608.563 20.7544 608.567 23.1641 608.551 25.5737C608.55 25.7367 608.431 25.9312 608.286 26.0054C607.063 26.6322 605.822 27.2242 604.598 27.8487C604.292 28.0048 604.134 27.9523 603.985 27.6557C603.494 26.6759 602.981 25.7069 602.497 24.7239C602.436 24.6006 602.431 24.3524 602.511 24.2717C604.489 22.2713 606.482 20.286 608.563 18.207Z" fill="#9AC95F"/>
<path d="M604.458 6.01313C604.776 5.36754 605.559 5.10156 606.205 5.41934C606.897 5.75973 607.577 6.09635 608.25 6.44539C608.393 6.51967 608.547 6.74278 608.548 6.89804C608.566 9.43561 608.561 11.9733 608.559 14.5109C608.559 14.5758 608.542 14.6409 608.519 14.7978C608.291 14.6349 608.094 14.5303 607.942 14.3796C606.344 12.7915 604.754 11.1941 603.156 9.60455C602.949 9.39833 602.849 9.2259 603.008 8.91748C603.498 7.96082 603.973 6.99675 604.458 6.01313Z" fill="#9AC95F"/>
<path d="M616.435 24.5111C616.048 25.2611 615.629 26.0748 615.191 26.9241C614.861 27.5648 614.073 27.8166 613.433 27.4854C612.776 27.1456 612.123 26.8148 611.448 26.5409C610.656 26.2199 610.427 25.7656 610.453 24.9291C610.52 22.7713 610.475 20.61 610.475 18.5508C612.427 20.5027 614.418 22.4945 616.435 24.5111Z" fill="#9AC95F"/>
<path d="M620.586 11.0625C621.238 11.3795 621.506 12.1679 621.183 12.817C620.823 13.541 620.472 14.2418 620.109 14.936C620.031 15.0855 619.811 15.2551 619.656 15.2562C617.088 15.2761 614.52 15.2703 611.873 15.2703C611.992 15.1225 612.064 15.0155 612.153 14.9262C613.83 13.2457 615.511 11.57 617.183 9.88511C617.39 9.67638 617.564 9.57655 617.862 9.72552C618.764 10.1762 619.67 10.6174 620.586 11.0625Z" fill="#9AC95F"/>
<path d="M598.063 19.2197C598.414 18.5075 598.761 17.8087 599.118 17.115C599.184 16.9851 599.359 16.8786 599.505 16.8777C602.077 16.8648 604.649 16.8695 607.221 16.8726C607.25 16.8726 607.28 16.8979 607.261 16.8893C605.422 18.7238 603.572 20.5698 601.665 22.4712C600.711 21.9945 599.698 21.4881 598.649 20.964C598.007 20.6434 597.745 19.8632 598.063 19.2197Z" fill="#9AC95F"/>
<path d="M610.477 14.2281C610.477 13.2253 610.477 12.2206 610.477 11.2159C610.477 9.79783 610.467 8.37958 610.49 6.9619C610.493 6.78542 610.629 6.52782 610.778 6.4502C611.592 6.02492 612.414 5.61583 613.252 5.20102C613.895 4.88283 614.675 5.14364 614.997 5.78463C615.441 6.66842 615.88 7.54411 616.309 8.39732C614.364 10.3416 612.437 12.2681 610.477 14.2281Z" fill="#9AC95F"/>
<path d="M598.064 11.2549C598.98 10.7968 599.879 10.3492 600.782 9.91119C600.903 9.85227 601.081 9.88187 601.177 9.97681C602.924 11.7024 604.658 13.4403 606.49 15.2705C606.192 15.2705 606.024 15.2705 605.856 15.2705C603.588 15.2705 601.32 15.2591 599.052 15.2819C598.69 15.2855 598.536 15.156 598.392 14.855C598.098 14.2384 597.792 13.627 597.481 13.0085C597.157 12.364 597.418 11.5774 598.064 11.2549Z" fill="#9AC95F"/>
<path d="M591.153 19.2616C592.521 19.2616 593.63 18.1526 593.63 16.7846C593.63 15.4166 592.521 14.3076 591.153 14.3076C589.785 14.3076 588.676 15.4166 588.676 16.7846C588.676 18.1526 589.785 19.2616 591.153 19.2616Z" fill="#9AC95F"/>
<path d="M585.453 3.71582L591.152 9.41464L596.851 3.71582H585.453Z" fill="#FF0080"/>
<path d="M596.851 29.8541L591.152 24.1553L585.453 29.8541H596.851Z" fill="#FF0080"/>
<path d="M628.082 19.2616C629.45 19.2616 630.559 18.1526 630.559 16.7846C630.559 15.4166 629.45 14.3076 628.082 14.3076C626.714 14.3076 625.605 15.4166 625.605 16.7846C625.605 18.1526 626.714 19.2616 628.082 19.2616Z" fill="#9AC95F"/>
<path d="M622.383 3.71582L628.082 9.41464L633.78 3.71582H622.383Z" fill="#FF0080"/>
<path d="M633.78 29.8541L628.082 24.1553L622.383 29.8541H633.78Z" fill="#FF0080"/>
<path d="M554.074 3.71582V9.27391L554.215 9.41464L559.914 3.71582H554.074Z" fill="#FF0080"/>
<path d="M554.074 29.8541H559.914L554.215 24.1553L554.074 24.2959V29.8541Z" fill="#FF0080"/>
<path d="M554.215 14.3076C554.167 14.3076 554.121 14.3121 554.074 14.3147V19.2546C554.121 19.2572 554.167 19.2617 554.215 19.2617C555.583 19.2617 556.692 18.1527 556.692 16.7847C556.692 15.4167 555.583 14.3076 554.215 14.3076Z" fill="#9AC95F"/>
</g>
<defs>
<clipPath id="clip0_54_1194">
<rect width="631" height="33" fill="white"/>
</clipPath>
</defs>
</svg>
