<svg width="25" height="25" viewBox="0 0 25 25" fill="none" xmlns="http://www.w3.org/2000/svg">
<g clip-path="url(#clip0_54_26837)">
<path d="M12.5004 0C7.3317 0 3.12549 4.23537 3.12549 9.44261C3.12549 16.8415 11.6192 24.481 11.9806 24.8018C12.1296 24.9341 12.315 24.9997 12.5004 24.9997C12.6858 24.9997 12.8712 24.9341 13.0202 24.8029C13.3816 24.481 21.8753 16.8415 21.8753 9.44261C21.8753 4.23537 17.6691 0 12.5004 0ZM12.5004 14.5832C9.62855 14.5832 7.29211 12.2467 7.29211 9.3749C7.29211 6.50306 9.62855 4.16662 12.5004 4.16662C15.3722 4.16662 17.7087 6.50306 17.7087 9.3749C17.7087 12.2467 15.3722 14.5832 12.5004 14.5832Z" fill="white"/>
</g>
<defs>
<clipPath id="clip0_54_26837">
<rect width="24.9333" height="24.9333" fill="white" transform="scale(1.00266)"/>
</clipPath>
</defs>
</svg>
